<?xml version="1.0"?>
<svg width="580" height="400" xmlns="http://www.w3.org/2000/svg">
 <g>
  <title>Cloud</title>
  <path stroke="#000" id="svg_1" d="m475.777679,173.585724c0.399841,-4.374496 0.634399,-8.780472 0.634399,-13.220779c0,-77.310242 -59.257874,-139.929626 -132.362518,-139.929626c-56.737305,0 -105.000153,37.817001 -123.82782,90.871811c-12.473251,-14.485504 -30.263016,-23.709442 -50.233948,-23.709442c-37.655045,0 -68.172295,32.249474 -68.172295,72.049286c0,4.71489 0.488724,9.292557 1.312828,13.732697c-50.233917,8.746582 -88.673017,54.522949 -88.673017,110.107025c0,61.831238 47.418656,111.948639 105.892713,111.948639l336.198517,0c58.493805,0 105.891998,-50.117401 105.891998,-111.948639c0.021118,-54.86615 -37.38031,-100.336624 -86.660858,-109.90097z" fill-opacity="null" stroke-opacity="null" stroke-width="1.5" fill="#fff"/>
 </g>
</svg>